<svg width="52" height="42" viewBox="0 0 52 42" fill="none" xmlns="http://www.w3.org/2000/svg">
<path d="M12.6423 33.5238C9.55457 33.5238 6.5933 32.3422 4.40995 30.2389C2.2266 28.1357 1 25.2831 1 22.3087C1 19.3342 2.2266 16.4816 4.40995 14.3784C6.5933 12.2752 9.55457 11.0936 12.6423 11.0936C13.3715 7.82171 15.5049 4.94642 18.5731 3.10025C20.0923 2.18612 21.7953 1.55215 23.5848 1.23455C25.3743 0.916952 27.2154 0.921939 29.0028 1.24922C30.7901 1.57651 32.4889 2.21969 34.0021 3.14203C35.5152 4.06438 36.8131 5.24783 37.8217 6.62481C38.8302 8.0018 39.5297 9.54535 39.8801 11.1673C40.2305 12.7893 40.225 14.458 39.8639 16.0781H42.3386C44.6357 16.0781 46.8388 16.9971 48.4631 18.6329C50.0875 20.2688 51 22.4875 51 24.8009C51 27.1144 50.0875 29.3331 48.4631 30.9689C46.8388 32.6048 44.6357 33.5238 42.3386 33.5238H39.8639" stroke="#2774E9" stroke-width="2" stroke-linecap="round" stroke-linejoin="round"/>
<path d="M17.5918 26.0461L25.0159 18.5693M25.0159 18.5693L32.4399 26.0461M25.0159 18.5693V40.9995" stroke="#2774E9" strokeWidth="2" strokeLinecap="round" strokeLinejoin="round"/>
</svg>
